<svg id="svg" version="1.1" xmlns="http://www.w3.org/2000/svg" xmlns:xlink="http://www.w3.org/1999/xlink" width="400" height="366.99999999999994" viewBox="0, 0, 400,366.99999999999994"><g id="svgg"><path id="path0" d="M323.041 12.555 C 321.565 13.736,318.737 16.357,312.029 22.761 C 307.116 27.452,301.998 32.282,298.430 35.594 C 296.819 37.091,293.682 40.076,291.460 42.228 C 289.238 44.380,286.097 47.365,284.481 48.860 C 282.865 50.356,278.154 54.819,274.013 58.778 C 269.871 62.738,265.161 67.195,263.545 68.683 C 261.928 70.171,258.363 73.549,255.621 76.190 C 249.029 82.539,244.945 86.399,242.047 89.016 C 240.739 90.198,237.514 93.256,234.879 95.812 C 232.244 98.368,229.021 101.444,227.716 102.647 C 226.412 103.850,222.406 107.637,218.815 111.063 C 208.457 120.944,210.075 120.675,202.733 113.735 C 201.206 112.292,198.975 110.226,197.774 109.145 C 196.574 108.063,193.939 105.578,191.919 103.623 C 189.899 101.667,187.006 98.927,185.491 97.534 C 183.976 96.142,180.112 92.511,176.904 89.466 C 169.930 82.846,169.746 82.673,164.922 78.237 C 162.835 76.318,159.213 72.922,156.872 70.691 C 154.532 68.459,151.548 65.650,150.242 64.446 C 147.238 61.681,146.707 61.180,142.280 56.933 C 140.279 55.014,136.511 51.460,133.905 49.036 C 131.300 46.612,128.577 44.077,127.853 43.404 C 127.130 42.731,125.381 41.070,123.967 39.713 C 122.553 38.356,120.156 36.110,118.641 34.723 C 117.126 33.335,113.185 29.629,109.884 26.488 C 106.583 23.346,103.512 20.440,103.059 20.030 C 102.607 19.619,100.618 17.796,98.640 15.978 C 96.662 14.160,94.775 12.507,94.446 12.305 C 93.375 11.648,13.059 11.617,12.514 12.274 C 11.828 13.100,12.393 13.821,17.323 18.408 C 19.795 20.708,23.629 24.325,25.843 26.446 C 30.669 31.069,30.593 30.997,36.573 36.544 C 41.707 41.305,44.901 44.314,47.887 47.199 C 48.932 48.209,50.775 49.933,51.982 51.030 C 54.236 53.076,57.556 56.188,63.361 61.697 C 65.179 63.422,67.906 65.975,69.421 67.371 C 70.937 68.766,74.821 72.418,78.053 75.485 C 81.286 78.553,85.001 82.039,86.311 83.231 C 87.620 84.424,90.327 86.970,92.327 88.889 C 94.327 90.808,96.397 92.792,96.926 93.297 C 97.455 93.802,99.787 95.950,102.107 98.072 C 104.427 100.193,108.043 103.581,110.142 105.601 C 112.241 107.622,114.151 109.440,114.387 109.642 C 114.921 110.099,118.284 113.234,125.617 120.110 C 128.741 123.039,132.788 126.834,134.611 128.542 C 136.434 130.251,138.186 131.904,138.506 132.215 C 153.290 146.637,159.537 152.606,160.821 153.535 C 164.018 155.848,166.567 158.218,177.029 168.602 C 181.409 172.950,185.973 177.328,187.170 178.331 C 188.368 179.334,191.662 182.417,194.490 185.182 C 203.990 194.468,205.312 195.728,206.571 196.688 L 207.826 197.645 209.002 196.930 C 209.649 196.536,212.517 193.997,215.374 191.286 C 218.231 188.576,221.719 185.296,223.125 183.997 C 224.530 182.698,227.671 179.712,230.104 177.363 C 239.804 167.997,243.229 164.864,246.254 162.590 C 247.250 161.842,249.564 159.841,251.397 158.143 C 253.230 156.445,255.473 154.524,256.382 153.875 C 257.889 152.798,263.880 147.434,267.634 143.802 C 272.546 139.048,276.050 135.701,278.972 132.969 C 280.790 131.270,285.500 126.805,289.440 123.047 C 293.379 119.288,297.842 115.078,299.357 113.689 C 300.872 112.300,304.345 109.003,307.074 106.363 C 311.961 101.633,318.774 95.291,321.506 92.926 C 324.413 90.411,324.249 82.488,324.419 233.609 C 324.538 339.490,324.626 355.516,325.093 356.474 L 325.630 357.576 356.557 357.670 C 386.746 357.761,387.492 357.747,387.861 357.057 C 388.348 356.148,388.772 87.630,388.356 43.588 C 388.071 13.347,388.041 12.413,387.349 11.908 C 386.747 11.467,381.813 11.387,355.569 11.387 L 324.502 11.387 323.041 12.555 M11.148 33.341 C 10.976 33.690,10.830 102.075,10.823 185.308 L 10.811 336.639 11.013 186.042 C 11.123 103.214,11.353 35.156,11.523 34.803 C 12.054 33.698,12.616 34.046,17.113 38.258 C 19.519 40.513,22.727 43.517,24.242 44.935 C 25.758 46.353,28.655 49.095,30.681 51.029 C 32.707 52.963,35.517 55.614,36.925 56.919 C 38.333 58.225,42.862 62.523,46.989 66.469 C 51.116 70.416,54.764 73.893,55.096 74.197 C 58.134 76.968,61.106 79.764,64.830 83.357 C 68.498 86.895,78.815 96.587,80.298 97.888 C 80.528 98.090,82.434 99.908,84.532 101.928 C 86.631 103.949,89.255 106.420,90.363 107.420 C 92.466 109.317,99.310 115.638,104.677 120.637 C 106.398 122.240,109.954 125.630,112.580 128.169 C 115.207 130.708,119.008 134.273,121.028 136.090 C 123.047 137.907,124.880 139.559,125.101 139.761 C 125.322 139.963,129.538 144.022,134.469 148.780 C 139.400 153.539,144.426 158.331,145.638 159.429 C 146.850 160.528,149.495 163.026,151.515 164.981 C 156.896 170.189,160.855 173.846,161.790 174.472 C 163.437 175.576,169.710 181.445,178.329 189.945 C 183.177 194.727,188.632 200.019,190.450 201.704 C 192.268 203.389,195.739 206.682,198.163 209.022 C 206.574 217.137,207.940 218.286,208.981 218.116 C 209.376 218.051,212.393 215.343,215.686 212.098 C 218.978 208.853,222.332 205.718,223.140 205.132 C 225.710 203.266,227.341 201.747,236.915 192.300 C 242.066 187.216,247.273 182.337,248.485 181.457 C 249.697 180.577,252.122 178.461,253.874 176.756 C 255.626 175.050,257.609 173.323,258.282 172.918 C 259.568 172.144,262.531 169.702,264.780 167.564 C 265.515 166.866,267.025 165.629,268.136 164.815 C 269.247 164.001,275.776 157.751,282.645 150.925 C 290.075 143.542,296.454 137.532,298.394 136.088 C 300.187 134.752,301.885 133.429,302.168 133.146 C 303.303 132.011,305.883 130.028,306.225 130.028 C 306.863 130.028,307.068 140.632,307.069 173.783 L 307.071 205.968 302.938 209.835 C 300.666 211.961,297.732 214.548,296.419 215.582 C 295.106 216.617,289.320 222.140,283.563 227.856 C 277.805 233.572,271.772 239.257,270.156 240.490 C 268.540 241.723,266.143 243.759,264.830 245.014 C 263.517 246.270,261.120 248.387,259.504 249.718 C 256.574 252.132,252.333 255.782,250.535 257.439 C 250.013 257.919,248.678 258.982,247.567 259.802 C 246.455 260.621,240.653 266.220,234.672 272.243 C 228.691 278.267,223.621 283.196,223.404 283.196 C 223.187 283.196,222.787 283.402,222.515 283.655 C 222.243 283.907,221.281 284.688,220.377 285.389 C 216.437 288.445,212.209 292.660,210.820 294.918 C 209.354 297.301,209.529 297.390,202.672 290.725 C 195.535 283.788,191.895 280.343,186.582 275.496 C 184.265 273.382,179.806 269.084,176.672 265.946 C 169.992 259.253,163.649 253.329,161.065 251.366 C 160.055 250.599,156.852 247.653,153.947 244.820 C 151.042 241.987,148.232 239.247,147.703 238.731 C 147.173 238.215,145.748 236.910,144.536 235.831 C 143.324 234.753,139.275 230.877,135.537 227.220 C 131.800 223.562,127.089 219.088,125.069 217.277 C 123.049 215.466,119.660 212.305,117.539 210.253 C 112.823 205.690,111.304 204.247,108.508 201.674 C 106.745 200.052,99.075 192.854,94.395 188.430 C 93.860 187.925,92.527 186.693,91.432 185.692 C 90.336 184.691,87.024 181.579,84.071 178.775 C 77.271 172.320,75.644 171.272,75.180 173.048 C 75.068 173.477,75.058 197.898,75.159 227.318 C 75.376 291.072,74.958 356.411,74.328 357.040 C 73.855 357.513,15.159 358.066,12.780 357.620 C 11.965 357.467,11.371 357.120,11.270 356.737 C 11.127 356.192,11.099 356.188,11.062 356.704 C 10.951 358.256,10.700 358.244,42.715 358.182 C 59.525 358.149,73.774 357.987,74.380 357.823 L 75.482 357.523 75.668 265.722 C 75.770 215.231,75.894 173.880,75.943 173.829 C 76.850 172.904,78.823 174.468,88.338 183.650 C 90.358 185.599,93.153 188.257,94.549 189.557 C 95.944 190.856,97.528 192.332,98.069 192.837 C 98.609 193.343,100.112 194.735,101.408 195.933 C 105.539 199.749,113.823 207.570,118.556 212.121 C 121.076 214.545,123.329 216.694,123.562 216.896 C 127.924 220.684,131.431 223.947,137.190 229.575 C 144.879 237.088,148.557 240.603,152.984 244.670 C 154.601 246.155,156.915 248.373,158.127 249.598 C 159.339 250.824,160.992 252.304,161.800 252.888 C 162.608 253.473,164.426 255.050,165.840 256.393 C 167.254 257.736,169.568 259.887,170.983 261.172 C 172.397 262.458,175.207 265.272,177.227 267.427 C 179.247 269.581,182.218 272.482,183.829 273.872 C 185.441 275.263,188.664 278.232,190.992 280.470 C 193.320 282.709,196.928 286.180,199.010 288.184 C 210.066 298.826,209.087 298.293,211.545 295.005 C 213.628 292.218,219.608 286.544,222.377 284.726 C 223.403 284.052,228.925 278.846,234.648 273.156 C 246.465 261.407,245.235 262.576,248.118 260.350 C 250.323 258.645,251.296 257.795,254.729 254.565 C 255.739 253.615,257.309 252.303,258.219 251.651 C 259.749 250.552,264.793 246.077,267.003 243.858 C 267.525 243.333,269.027 242.122,270.340 241.166 C 271.653 240.211,277.603 234.597,283.563 228.692 C 289.522 222.787,295.390 217.227,296.602 216.338 C 298.557 214.903,302.690 211.144,306.221 207.590 L 307.438 206.365 307.411 169.757 C 307.387 136.044,307.260 129.727,306.598 129.065 C 306.308 128.776,305.179 129.520,303.214 131.295 C 302.406 132.025,300.257 133.749,298.439 135.127 C 296.556 136.553,289.835 142.914,282.828 149.902 C 276.061 156.650,269.449 162.989,268.136 163.988 C 266.823 164.987,264.509 166.894,262.994 168.227 C 261.478 169.559,259.330 171.321,258.219 172.142 C 257.107 172.963,255.041 174.745,253.627 176.102 C 252.213 177.459,250.064 179.336,248.852 180.272 C 246.068 182.423,244.657 183.744,236.217 192.103 C 227.526 200.710,224.973 203.085,223.140 204.269 C 222.332 204.792,218.906 207.971,215.527 211.333 C 208.856 217.971,208.973 217.899,207.309 216.431 C 206.683 215.879,205.445 214.848,204.558 214.141 C 203.672 213.434,200.631 210.602,197.800 207.847 C 194.970 205.093,191.682 201.952,190.493 200.868 C 189.305 199.785,184.016 194.628,178.740 189.409 C 173.463 184.191,166.997 178.055,164.371 175.775 C 161.745 173.495,158.604 170.657,157.392 169.469 C 156.180 168.281,153.812 166.070,152.131 164.555 C 145.403 158.493,143.174 156.400,136.873 150.230 C 133.263 146.694,129.866 143.388,129.324 142.883 C 128.782 142.378,126.859 140.559,125.051 138.840 C 123.242 137.122,120.528 134.642,119.019 133.331 C 117.509 132.019,113.542 128.290,110.203 125.044 C 105.146 120.129,102.202 117.321,99.040 114.398 C 98.811 114.186,97.631 113.126,96.419 112.043 C 92.646 108.674,86.339 102.831,82.109 98.786 C 78.344 95.186,75.413 92.428,69.445 86.869 C 68.144 85.657,65.003 82.676,62.465 80.244 C 58.159 76.119,52.816 71.055,51.432 69.789 C 51.101 69.486,47.699 66.256,43.872 62.611 C 40.046 58.966,35.762 54.916,34.354 53.612 C 32.946 52.307,30.136 49.642,28.110 47.689 C 26.084 45.736,23.833 43.588,23.109 42.914 C 22.384 42.241,19.848 39.871,17.473 37.649 C 12.501 32.996,11.613 32.392,11.148 33.341 " stroke="none" fill="#cb0505" fill-rule="evenodd"></path><path id="path1" d="M11.485 35.170 C 11.100 36.549,11.125 356.886,11.511 357.270 C 12.020 357.777,73.806 357.562,74.317 357.051 C 74.959 356.410,75.378 291.709,75.159 227.318 C 75.058 197.898,75.068 173.477,75.180 173.048 C 75.644 171.272,77.271 172.320,84.071 178.775 C 87.024 181.579,90.336 184.691,91.432 185.692 C 92.527 186.693,93.860 187.925,94.395 188.430 C 99.075 192.854,106.745 200.052,108.508 201.674 C 111.304 204.247,112.823 205.690,117.539 210.253 C 119.660 212.305,123.049 215.466,125.069 217.277 C 127.089 219.088,131.800 223.562,135.537 227.220 C 139.275 230.877,143.324 234.753,144.536 235.831 C 145.748 236.910,147.173 238.215,147.703 238.731 C 148.232 239.247,151.042 241.987,153.947 244.820 C 156.852 247.653,160.055 250.599,161.065 251.366 C 163.649 253.329,169.992 259.253,176.672 265.946 C 179.806 269.084,184.265 273.382,186.582 275.496 C 191.895 280.343,195.535 283.788,202.672 290.725 C 209.529 297.390,209.354 297.301,210.820 294.918 C 212.209 292.660,216.437 288.445,220.377 285.389 C 221.281 284.688,222.243 283.907,222.515 283.655 C 222.787 283.402,223.187 283.196,223.404 283.196 C 223.621 283.196,228.691 278.267,234.672 272.243 C 240.653 266.220,246.455 260.621,247.567 259.802 C 248.678 258.982,250.013 257.919,250.535 257.439 C 252.333 255.782,256.574 252.132,259.504 249.718 C 261.120 248.387,263.517 246.270,264.830 245.014 C 266.143 243.759,268.540 241.723,270.156 240.490 C 271.772 239.257,277.805 233.572,283.563 227.856 C 289.320 222.140,295.106 216.617,296.419 215.582 C 297.732 214.548,300.666 211.961,302.938 209.835 L 307.071 205.968 307.069 173.783 C 307.068 140.632,306.863 130.028,306.225 130.028 C 305.883 130.028,303.303 132.011,302.168 133.146 C 301.885 133.429,300.187 134.752,298.394 136.088 C 296.454 137.532,290.075 143.542,282.645 150.925 C 275.776 157.751,269.247 164.001,268.136 164.815 C 267.025 165.629,265.515 166.866,264.780 167.564 C 262.531 169.702,259.568 172.144,258.282 172.918 C 257.609 173.323,255.626 175.050,253.874 176.756 C 252.122 178.461,249.697 180.577,248.485 181.457 C 247.273 182.337,242.066 187.216,236.915 192.300 C 227.341 201.747,225.710 203.266,223.140 205.132 C 222.332 205.718,218.978 208.853,215.686 212.098 C 212.393 215.343,209.376 218.051,208.981 218.116 C 207.940 218.286,206.574 217.137,198.163 209.022 C 195.739 206.682,192.268 203.389,190.450 201.704 C 188.632 200.019,183.177 194.727,178.329 189.945 C 169.710 181.445,163.437 175.576,161.790 174.472 C 160.855 173.846,156.896 170.189,151.515 164.981 C 149.495 163.026,146.850 160.528,145.638 159.429 C 144.426 158.331,139.400 153.539,134.469 148.780 C 129.538 144.022,125.322 139.963,125.101 139.761 C 124.880 139.559,123.047 137.907,121.028 136.090 C 119.008 134.273,115.207 130.708,112.580 128.169 C 109.954 125.630,106.398 122.240,104.677 120.637 C 99.310 115.638,92.466 109.317,90.363 107.420 C 89.255 106.420,86.631 103.949,84.532 101.928 C 82.434 99.908,80.528 98.090,80.298 97.888 C 78.815 96.587,68.498 86.895,64.830 83.357 C 61.106 79.764,58.134 76.968,55.096 74.197 C 54.764 73.893,51.116 70.416,46.989 66.469 C 42.862 62.523,38.333 58.225,36.925 56.919 C 35.517 55.614,32.707 52.963,30.681 51.029 C 28.655 49.095,25.758 46.353,24.242 44.935 C 22.727 43.517,19.519 40.513,17.113 38.258 C 12.438 33.879,11.925 33.598,11.485 35.170 " stroke="none" fill="#040404" fill-rule="evenodd"></path></g></svg>