<?xml version="1.0" encoding="UTF-8"?>
<svg width="908pt" xmlns:xlink="http://www.w3.org/1999/xlink" xmlns="http://www.w3.org/2000/svg" height="488pt" viewBox="0 0 908 488" >
 <g transform="translate(0, 362.33)" style="fill:#ffffff; fill-rule:nonzero; stroke:none; stroke-width:1; stroke-linecap:butt; stroke-linejoin:miter; stroke-dasharray:none;" >
  <path d="M147.043 0 C147.043 0 147.199 84.174 147.199 84.174 C147.199 89.566 147.199 105.973 105.879 106.041 C105.879 106.041 102 106.049 102 106.049 C102 106.049 98.1191 106.041 98.1191 106.041 C56.7969 105.973 56.7969 89.566 56.7969 84.174 C56.7969 84.174 56.9551 0 56.9551 0 C56.9551 0 0 0 0 0 C0 0 0.0498047 96.807 0.0498047 96.807 C0.0498047 123.588 75.1221 125.67 98.1367 125.67 C98.1367 125.67 101.623 125.67 101.623 125.67 C101.623 125.67 102.377 125.67 102.377 125.67 C102.377 125.67 105.867 125.67 105.867 125.67 C128.877 125.67 203.95 123.588 203.95 96.807 C203.95 96.807 204 0 204 0 C204 0 147.043 0 147.043 0 Z" />
 </g>
 <g transform="translate(105.867, 366.436)" style="fill:#004a2a; fill-rule:nonzero; stroke:none; stroke-width:1; stroke-linecap:butt; stroke-linejoin:miter; stroke-dasharray:none;" >
  <path d="M45.571 80.068 C45.571 80.068 45.586 0 45.586 0 C45.586 0 93.897 0 93.897 0 C93.897 0 93.84 89.496 93.84 92.701 C93.84 110.275 45.608 117.322 0 117.322 C0 115.107 0.016 109.666 0.016 106.169 C22.844 106.136 45.571 101.31 45.571 80.068 Z" />
 </g>
 <g transform="translate(4.23633, 366.436)" style="fill:#ec6900; fill-rule:nonzero; stroke:none; stroke-width:1; stroke-linecap:butt; stroke-linejoin:miter; stroke-dasharray:none;" >
  <path d="M48.3262 80.068 C48.3262 80.068 48.3096 0 48.3096 0 C48.3096 0 0 0 0 0 C0 0 0.05469 89.496 0.05469 92.701 C0.05469 110.275 48.293 117.322 93.9004 117.322 C93.9004 115.107 93.8789 109.666 93.8789 106.169 C71.0547 106.136 48.3262 101.31 48.3262 80.068 Z" />
 </g>
 <g transform="translate(4.27051, 333.574)" style="fill:none; stroke:#004a2a; stroke-width:2.5; stroke-linecap:butt; stroke-linejoin:miter; stroke-dasharray:none;" >
  <path d="M0 0 C0 0 903.021 0 903.021 0 " />
 </g>
 <g transform="translate(3.93359, 173.011)" style="fill:#ec6900; fill-rule:nonzero; stroke:none; stroke-width:2.5; stroke-linecap:butt; stroke-linejoin:miter; stroke-dasharray:none;" >
  <path d="M12.3398 4.605 C12.3398 4.605 12.3398 39.691 12.3398 39.691 C12.3398 43.324 12.9316 45.756 14.1152 46.986 C15.2978 48.217 17.5547 48.855 20.8828 48.902 C20.8828 48.902 20.8828 51.996 20.8828 51.996 C20.8828 51.996 0 51.996 0 51.996 C0 51.996 0.03516 48.902 0.03516 48.902 C3.38672 48.855 5.66016 48.229 6.85551 47.021 C8.05081 45.814 8.64841 43.371 8.64841 39.691 C8.64841 39.691 8.64841 6.855 8.64841 6.855 C8.64841 5.519 8.38961 4.611 7.87501 4.131 C7.35941 3.651 6.35161 3.41 4.85157 3.41 C4.85157 3.41 0.59766 3.41 0.59766 3.41 C0.59766 3.41 0.59766 0 0.59766 0 C0.59766 0 18.5977 0 18.5977 0 C18.5977 0 32.5547 39.761 32.5547 39.761 C32.5547 39.761 46.0898 0 46.0898 0 C46.0898 0 63.668 0 63.668 0 C63.668 0 63.668 3.41 63.668 3.41 C63.668 3.41 59.8359 3.41 59.8359 3.41 C58.3594 3.41 57.3691 3.644 56.8652 4.113 C56.3603 4.582 56.1094 5.496 56.1094 6.855 C56.1094 6.855 56.1094 45.14 56.1094 45.14 C56.1094 46.5 56.3603 47.42 56.8652 47.9 C57.3691 48.381 58.3594 48.621 59.8359 48.621 C59.8359 48.621 63.668 48.621 63.668 48.621 C63.668 48.621 63.668 51.996 63.668 51.996 C63.668 51.996 40.3242 51.996 40.3242 51.996 C40.3242 51.996 40.3242 48.621 40.3242 48.621 C40.3242 48.621 44.6484 48.621 44.6484 48.621 C46.1719 48.621 47.1914 48.381 47.707 47.9 C48.2227 47.42 48.4805 46.5 48.4805 45.14 C48.4805 45.14 48.4805 4.605 48.4805 4.605 C48.4805 4.605 32.3437 51.996 32.3437 51.996 C32.3437 51.996 29.5312 51.996 29.5312 51.996 C29.5312 51.996 12.3398 4.605 12.3398 4.605 Z" />
 </g>
 <g transform="translate(71.7695, 173.011)" style="fill:#ec6900; fill-rule:nonzero; stroke:none; stroke-width:2.5; stroke-linecap:butt; stroke-linejoin:miter; stroke-dasharray:none;" >
  <path d="M0 51.996 C0 51.996 0 48.621 0 48.621 C0 48.621 3.8672 48.621 3.8672 48.621 C5.3907 48.621 6.4219 48.375 6.9619 47.883 C7.5 47.39 7.7705 46.476 7.7705 45.14 C7.7705 45.14 7.7705 6.855 7.7705 6.855 C7.7705 5.519 7.5 4.611 6.9619 4.131 C6.4219 3.651 5.3907 3.41 3.8672 3.41 C3.8672 3.41 0 3.41 0 3.41 C0 3.41 0 0 0 0 C0 0 23.4493 0 23.4493 0 C23.4493 0 23.4493 3.41 23.4493 3.41 C23.4493 3.41 19.583 3.41 19.583 3.41 C18.083 3.41 17.0694 3.644 16.541 4.113 C16.0147 4.582 15.75 5.496 15.75 6.855 C15.75 6.855 15.75 45.14 15.75 45.14 C15.75 46.5 16.0147 47.42 16.541 47.9 C17.0694 48.381 18.083 48.621 19.583 48.621 C19.583 48.621 23.4493 48.621 23.4493 48.621 C23.4493 48.621 23.4493 51.996 23.4493 51.996 C23.4493 51.996 0 51.996 0 51.996 Z" />
 </g>
 <g transform="translate(99.6338, 173.011)" style="fill:#ec6900; fill-rule:nonzero; stroke:none; stroke-width:2.5; stroke-linecap:butt; stroke-linejoin:miter; stroke-dasharray:none;" >
  <path d="M0 51.996 C0 51.996 0 48.621 0 48.621 C0 48.621 3.7262 48.621 3.7262 48.621 C5.2502 48.621 6.2692 48.381 6.7852 47.9 C7.3002 47.42 7.5582 46.5 7.5582 45.14 C7.5582 45.14 7.5582 6.855 7.5582 6.855 C7.5582 5.519 7.3002 4.611 6.7852 4.131 C6.2692 3.651 5.2502 3.41 3.7262 3.41 C3.7262 3.41 0 3.41 0 3.41 C0 3.41 0 0 0 0 C0 0 22.9572 0 22.9572 0 C22.9572 0 22.9572 3.41 22.9572 3.41 C22.9572 3.41 19.1252 3.41 19.1252 3.41 C17.6482 3.41 16.6582 3.644 16.1542 4.113 C15.6502 4.582 15.3982 5.496 15.3982 6.855 C15.3982 6.855 15.3982 45.14 15.3982 45.14 C15.3982 46.617 15.7262 47.59 16.3832 48.058 C17.0382 48.528 18.7502 48.761 21.5152 48.761 C25.2422 48.761 28.1302 48.55 30.1812 48.129 C32.2322 47.707 33.8082 47.027 34.9102 46.09 C36.1282 45.035 37.1892 43.347 38.0922 41.027 C38.9932 38.707 39.7622 35.718 40.3942 32.062 C40.3942 32.062 43.1722 32.062 43.1722 32.062 C43.1722 32.062 42.1172 51.996 42.1172 51.996 C42.1172 51.996 0 51.996 0 51.996 Z" />
 </g>
 <g transform="translate(146.517, 173.011)" style="fill:#ec6900; fill-rule:nonzero; stroke:none; stroke-width:2.5; stroke-linecap:butt; stroke-linejoin:miter; stroke-dasharray:none;" >
  <path d="M0 51.996 C0 51.996 0 48.621 0 48.621 C0 48.621 3.727 48.621 3.727 48.621 C5.25 48.621 6.27 48.381 6.785 47.9 C7.3 47.42 7.559 46.5 7.559 45.14 C7.559 45.14 7.559 6.855 7.559 6.855 C7.559 5.519 7.3 4.611 6.785 4.131 C6.27 3.651 5.25 3.41 3.727 3.41 C3.727 3.41 0 3.41 0 3.41 C0 3.41 0 0 0 0 C0 0 22.957 0 22.957 0 C22.957 0 22.957 3.41 22.957 3.41 C22.957 3.41 19.125 3.41 19.125 3.41 C17.649 3.41 16.658 3.644 16.154 4.113 C15.65 4.582 15.399 5.496 15.399 6.855 C15.399 6.855 15.399 45.14 15.399 45.14 C15.399 46.617 15.727 47.59 16.383 48.058 C17.039 48.528 18.75 48.761 21.516 48.761 C25.242 48.761 28.13 48.55 30.182 48.129 C32.233 47.707 33.808 47.027 34.91 46.09 C36.129 45.035 37.19 43.347 38.092 41.027 C38.994 38.707 39.762 35.718 40.395 32.062 C40.395 32.062 43.172 32.062 43.172 32.062 C43.172 32.062 42.117 51.996 42.117 51.996 C42.117 51.996 0 51.996 0 51.996 Z" />
 </g>
 <g transform="translate(193.4, 173.011)" style="fill:#ec6900; fill-rule:nonzero; stroke:none; stroke-width:2.5; stroke-linecap:butt; stroke-linejoin:miter; stroke-dasharray:none;" >
  <path d="M0 51.996 C0 51.996 0 48.621 0 48.621 C0 48.621 3.727 48.621 3.727 48.621 C5.25 48.621 6.27 48.381 6.786 47.9 C7.301 47.42 7.559 46.5 7.559 45.14 C7.559 45.14 7.559 6.855 7.559 6.855 C7.559 5.519 7.301 4.611 6.786 4.131 C6.27 3.651 5.25 3.41 3.727 3.41 C3.727 3.41 0 3.41 0 3.41 C0 3.41 0 0 0 0 C0 0 42.118 0 42.118 0 C42.118 0 43.032 18.386 43.032 18.386 C43.032 18.386 39.938 18.386 39.938 18.386 C39.493 15.386 38.836 12.814 37.969 10.67 C37.102 8.525 36.082 6.938 34.911 5.906 C33.762 4.969 32.168 4.295 30.129 3.884 C28.09 3.475 25.219 3.269 21.516 3.269 C18.75 3.269 17.039 3.504 16.383 3.972 C15.727 4.442 15.399 5.402 15.399 6.855 C15.399 6.855 15.399 23.343 15.399 23.343 C15.399 23.343 16.418 23.343 16.418 23.343 C20.145 23.343 22.805 22.611 24.399 21.146 C25.993 19.682 26.953 17.098 27.282 13.394 C27.282 13.394 30.305 13.394 30.305 13.394 C30.305 13.394 30.305 36.316 30.305 36.316 C30.305 36.316 27.282 36.316 27.282 36.316 C26.953 32.59 26.004 30.011 24.434 28.582 C22.864 27.153 20.192 26.437 16.418 26.437 C16.418 26.437 15.399 26.437 15.399 26.437 C15.399 26.437 15.399 45.14 15.399 45.14 C15.399 46.64 15.75 47.631 16.454 48.111 C17.157 48.592 19.032 48.832 22.079 48.832 C25.454 48.832 28.178 48.686 30.252 48.392 C32.327 48.099 34.019 47.625 35.332 46.968 C36.902 46.172 38.221 44.619 39.288 42.31 C40.354 40.002 41.297 36.656 42.118 32.273 C42.118 32.273 44.86 32.273 44.86 32.273 C44.86 32.273 43.77 51.996 43.77 51.996 C43.77 51.996 0 51.996 0 51.996 Z" />
 </g>
 <g transform="translate(244.08, 173.011)" style="fill:#ec6900; fill-rule:nonzero; stroke:none; stroke-width:2.5; stroke-linecap:butt; stroke-linejoin:miter; stroke-dasharray:none;" >
  <path d="M15.399 6.433 C15.399 6.433 15.399 23.343 15.399 23.343 C15.399 23.343 18.914 23.484 18.914 23.484 C19.218 23.508 19.541 23.525 19.881 23.537 C20.22 23.549 20.719 23.554 21.375 23.554 C26.227 23.554 29.742 22.746 31.922 21.129 C34.102 19.511 35.191 16.887 35.191 13.254 C35.191 9.691 34.307 7.136 32.537 5.59 C30.767 4.043 27.832 3.269 23.731 3.269 C23.731 3.269 19.055 3.269 19.055 3.269 C17.601 3.269 16.629 3.475 16.137 3.884 C15.645 4.295 15.399 5.145 15.399 6.433 Z M0 51.996 C0 51.996 0 48.621 0 48.621 C0 48.621 3.727 48.621 3.727 48.621 C5.25 48.621 6.27 48.381 6.785 47.9 C7.3 47.42 7.559 46.5 7.559 45.14 C7.559 45.14 7.559 6.855 7.559 6.855 C7.559 5.519 7.3 4.611 6.785 4.131 C6.27 3.651 5.25 3.41 3.727 3.41 C3.727 3.41 0 3.41 0 3.41 C0 3.41 0 0 0 0 C0 0 28.793 0 28.793 0 C33.152 0 36.668 1.172 39.34 3.515 C42.012 5.859 43.348 8.942 43.348 12.761 C43.348 16.511 42.024 19.465 39.375 21.621 C36.726 23.778 32.742 25.136 27.422 25.699 C30.328 26.098 32.584 27.035 34.19 28.511 C35.795 29.988 36.926 32.156 37.582 35.015 C37.582 35.015 39.516 43.136 39.516 43.136 C39.89 44.802 40.336 46.008 40.852 46.758 C41.367 47.508 42 47.883 42.75 47.883 C43.711 47.883 44.425 47.279 44.895 46.072 C45.363 44.865 45.633 42.961 45.703 40.359 C45.703 40.359 48.445 40.324 48.445 40.324 C48.445 40.535 48.457 40.822 48.481 41.185 C48.503 41.549 48.516 41.813 48.516 41.976 C48.516 45.61 47.76 48.404 46.248 50.361 C44.736 52.318 42.586 53.297 39.797 53.297 C37.125 53.297 35.133 52.535 33.82 51.011 C32.507 49.488 31.641 46.863 31.219 43.136 C31.219 43.136 30.445 35.929 30.445 35.929 C30.094 32.672 29.068 30.334 27.369 28.916 C25.67 27.498 22.969 26.789 19.266 26.789 C19.266 26.789 15.399 26.789 15.399 26.789 C15.399 26.789 15.399 45.14 15.399 45.14 C15.399 46.5 15.65 47.42 16.154 47.9 C16.658 48.381 17.649 48.621 19.125 48.621 C19.125 48.621 23.59 48.621 23.59 48.621 C23.59 48.621 23.59 51.996 23.59 51.996 C23.59 51.996 0 51.996 0 51.996 Z" />
 </g>
 <g transform="translate(316.468, 171.815)" style="fill:#ec6900; fill-rule:nonzero; stroke:none; stroke-width:2.5; stroke-linecap:butt; stroke-linejoin:miter; stroke-dasharray:none;" >
  <path d="M5.906 49.079 C5.906 49.079 2.883 54.071 2.883 54.071 C2.883 54.071 0.351 54.071 0.351 54.071 C0.351 54.071 0 33.188 0 33.188 C0 33.188 2.953 33.188 2.953 33.188 C4.031 39.094 6.047 43.582 9 46.653 C11.953 49.724 15.75 51.258 20.39 51.258 C24.234 51.258 27.222 50.35 29.355 48.534 C31.488 46.718 32.554 44.192 32.554 40.957 C32.554 39.458 32.279 38.127 31.728 36.967 C31.178 35.807 30.398 34.852 29.39 34.102 C28.054 33.165 25.195 32.133 20.812 31.008 C19.429 30.657 18.351 30.375 17.578 30.164 C10.71 28.313 6.146 26.286 3.885 24.082 C1.622 21.88 0.492 18.739 0.492 14.661 C0.492 10.208 1.881 6.651 4.658 3.991 C7.435 1.331 11.167 0 15.855 0 C18.48 0 20.929 0.422 23.203 1.266 C25.476 2.11 27.515 3.364 29.32 5.028 C29.32 5.028 32.097 0.704 32.097 0.704 C32.097 0.704 34.769 0.704 34.769 0.704 C34.769 0.704 35.578 19.407 35.578 19.407 C35.578 19.407 32.765 19.407 32.765 19.407 C31.406 14.063 29.308 10.043 26.472 7.348 C23.636 4.653 20.097 3.305 15.855 3.305 C12.691 3.305 10.242 4.061 8.508 5.573 C6.773 7.084 5.906 9.235 5.906 12.024 C5.906 16.29 10.253 19.489 18.949 21.621 C19.769 21.809 20.402 21.961 20.847 22.079 C24.902 23.086 27.761 23.972 29.426 24.733 C31.09 25.495 32.519 26.415 33.715 27.493 C35.121 28.806 36.199 30.411 36.949 32.309 C37.699 34.207 38.074 36.294 38.074 38.567 C38.074 43.629 36.521 47.549 33.416 50.327 C30.31 53.104 25.922 54.493 20.25 54.493 C17.46 54.493 14.806 54.018 12.287 53.069 C9.767 52.12 7.64 50.789 5.906 49.079 Z" />
 </g>
 <g transform="translate(359.378, 171.886)" style="fill:#ec6900; fill-rule:nonzero; stroke:none; stroke-width:2.5; stroke-linecap:butt; stroke-linejoin:miter; stroke-dasharray:none;" >
  <path d="M40.817 34.91 C40.817 34.91 44.227 35.332 44.227 35.332 C43.43 41.332 41.233 46.025 37.635 49.412 C34.037 52.799 29.461 54.492 23.907 54.492 C21.187 54.492 18.651 54.088 16.295 53.279 C13.94 52.47 11.801 51.27 9.879 49.675 C6.598 46.957 4.131 43.717 2.479 39.955 C0.827 36.193 0 31.922 0 27.14 C0 23.508 0.522 20.115 1.565 16.963 C2.607 13.811 4.149 10.933 6.188 8.332 C8.438 5.519 10.987 3.427 13.834 2.056 C16.682 0.685 19.899 0 23.485 0 C25.946 0 28.248 0.392 30.393 1.177 C32.538 1.963 34.547 3.152 36.422 4.746 C36.422 4.746 39.164 0.281 39.164 0.281 C39.164 0.281 41.907 0.281 41.907 0.281 C41.907 0.281 42.856 21.234 42.856 21.234 C42.856 21.234 40.043 21.375 40.043 21.375 C38.989 15.468 37.12 10.957 34.436 7.84 C31.752 4.723 28.407 3.164 24.399 3.164 C19.383 3.164 15.622 5.156 13.114 9.14 C10.605 13.125 9.352 19.125 9.352 27.14 C9.352 35.274 10.612 41.279 13.131 45.158 C15.65 49.037 19.56 50.976 24.856 50.976 C28.981 50.976 32.409 49.611 35.139 46.881 C37.869 44.151 39.762 40.16 40.817 34.91 Z" />
 </g>
 <g transform="translate(407.914, 173.011)" style="fill:#ec6900; fill-rule:nonzero; stroke:none; stroke-width:2.5; stroke-linecap:butt; stroke-linejoin:miter; stroke-dasharray:none;" >
  <path d="M0 51.996 C0 51.996 0 48.621 0 48.621 C0 48.621 3.727 48.621 3.727 48.621 C5.203 48.621 6.211 48.369 6.75 47.865 C7.289 47.361 7.559 46.453 7.559 45.14 C7.559 45.14 7.559 6.855 7.559 6.855 C7.559 5.543 7.289 4.64 6.75 4.148 C6.211 3.656 5.203 3.41 3.727 3.41 C3.727 3.41 0 3.41 0 3.41 C0 3.41 0 0 0 0 C0 0 22.957 0 22.957 0 C22.957 0 22.957 3.41 22.957 3.41 C22.957 3.41 19.125 3.41 19.125 3.41 C17.671 3.41 16.687 3.651 16.172 4.131 C15.656 4.611 15.399 5.519 15.399 6.855 C15.399 6.855 15.399 22.922 15.399 22.922 C15.399 22.922 39.727 22.922 39.727 22.922 C39.727 22.922 39.727 6.855 39.727 6.855 C39.727 5.543 39.457 4.64 38.918 4.148 C38.378 3.656 37.383 3.41 35.93 3.41 C35.93 3.41 32.098 3.41 32.098 3.41 C32.098 3.41 32.098 0 32.098 0 C32.098 0 55.125 0 55.125 0 C55.125 0 55.125 3.41 55.125 3.41 C55.125 3.41 51.328 3.41 51.328 3.41 C49.852 3.41 48.844 3.656 48.305 4.148 C47.765 4.64 47.496 5.543 47.496 6.855 C47.496 6.855 47.496 45.14 47.496 45.14 C47.496 46.453 47.765 47.361 48.305 47.865 C48.844 48.369 49.852 48.621 51.328 48.621 C51.328 48.621 55.125 48.621 55.125 48.621 C55.125 48.621 55.125 51.996 55.125 51.996 C55.125 51.996 32.098 51.996 32.098 51.996 C32.098 51.996 32.098 48.621 32.098 48.621 C32.098 48.621 35.93 48.621 35.93 48.621 C37.383 48.621 38.378 48.369 38.918 47.865 C39.457 47.361 39.727 46.453 39.727 45.14 C39.727 45.14 39.727 26.578 39.727 26.578 C39.727 26.578 15.399 26.578 15.399 26.578 C15.399 26.578 15.399 45.14 15.399 45.14 C15.399 46.476 15.656 47.39 16.172 47.883 C16.687 48.375 17.671 48.621 19.125 48.621 C19.125 48.621 22.957 48.621 22.957 48.621 C22.957 48.621 22.957 51.996 22.957 51.996 C22.957 51.996 0 51.996 0 51.996 Z" />
 </g>
 <g transform="translate(468.016, 171.71)" style="fill:#ec6900; fill-rule:nonzero; stroke:none; stroke-width:2.5; stroke-linecap:butt; stroke-linejoin:miter; stroke-dasharray:none;" >
  <path d="M9.352 27.316 C9.352 35.402 10.617 41.42 13.149 45.369 C15.68 49.319 19.559 51.293 24.785 51.293 C29.941 51.293 33.797 49.301 36.352 45.316 C38.906 41.332 40.184 35.332 40.184 27.316 C40.184 19.16 38.923 13.125 36.404 9.211 C33.885 5.297 30.011 3.34 24.785 3.34 C19.582 3.34 15.709 5.309 13.166 9.246 C10.623 13.184 9.352 19.207 9.352 27.316 Z M0 27.316 C0 23.497 0.574 19.951 1.723 16.682 C2.871 13.412 4.558 10.524 6.785 8.016 C9.082 5.391 11.754 3.398 14.801 2.039 C17.847 0.68 21.176 0 24.785 0 C28.418 0 31.705 0.65 34.647 1.951 C37.588 3.252 40.254 5.25 42.645 7.945 C44.918 10.5 46.623 13.394 47.76 16.629 C48.897 19.863 49.465 23.426 49.465 27.316 C49.465 31.277 48.955 34.775 47.936 37.81 C46.916 40.846 45.317 43.629 43.137 46.16 C40.723 48.973 37.998 51.07 34.963 52.453 C31.927 53.836 28.535 54.527 24.785 54.527 C21.011 54.527 17.613 53.842 14.59 52.471 C11.567 51.1 8.836 48.996 6.399 46.16 C4.219 43.629 2.607 40.829 1.565 37.758 C0.522 34.687 0 31.207 0 27.316 Z" />
 </g>
 <g transform="translate(523.372, 171.71)" style="fill:#ec6900; fill-rule:nonzero; stroke:none; stroke-width:2.5; stroke-linecap:butt; stroke-linejoin:miter; stroke-dasharray:none;" >
  <path d="M9.353 27.316 C9.353 35.402 10.618 41.42 13.149 45.369 C15.681 49.319 19.56 51.293 24.786 51.293 C29.942 51.293 33.798 49.301 36.353 45.316 C38.907 41.332 40.185 35.332 40.185 27.316 C40.185 19.16 38.925 13.125 36.405 9.211 C33.886 5.297 30.013 3.34 24.786 3.34 C19.583 3.34 15.71 5.309 13.167 9.246 C10.622 13.184 9.353 19.207 9.353 27.316 Z M0 27.316 C0 23.497 0.574 19.951 1.723 16.682 C2.871 13.412 4.558 10.524 6.786 8.016 C9.083 5.391 11.755 3.398 14.802 2.039 C17.847 0.68 21.177 0 24.786 0 C28.419 0 31.706 0.65 34.649 1.951 C37.589 3.252 40.255 5.25 42.646 7.945 C44.919 10.5 46.624 13.394 47.761 16.629 C48.899 19.863 49.466 23.426 49.466 27.316 C49.466 31.277 48.956 34.775 47.937 37.81 C46.917 40.846 45.317 43.629 43.138 46.16 C40.724 48.973 37.999 51.07 34.964 52.453 C31.929 53.836 28.536 54.527 24.786 54.527 C21.013 54.527 17.614 53.842 14.591 52.471 C11.567 51.1 8.837 48.996 6.399 46.16 C4.219 43.629 2.607 40.829 1.566 37.758 C0.522 34.687 0 31.207 0 27.316 Z" />
 </g>
 <g transform="translate(577.955, 173.011)" style="fill:#ec6900; fill-rule:nonzero; stroke:none; stroke-width:2.5; stroke-linecap:butt; stroke-linejoin:miter; stroke-dasharray:none;" >
  <path d="M0 51.996 C0 51.996 0 48.621 0 48.621 C0 48.621 3.727 48.621 3.727 48.621 C5.25 48.621 6.27 48.381 6.785 47.9 C7.301 47.42 7.559 46.5 7.559 45.14 C7.559 45.14 7.559 6.855 7.559 6.855 C7.559 5.519 7.301 4.611 6.785 4.131 C6.27 3.651 5.25 3.41 3.727 3.41 C3.727 3.41 0 3.41 0 3.41 C0 3.41 0 0 0 0 C0 0 22.957 0 22.957 0 C22.957 0 22.957 3.41 22.957 3.41 C22.957 3.41 19.125 3.41 19.125 3.41 C17.649 3.41 16.658 3.644 16.154 4.113 C15.65 4.582 15.399 5.496 15.399 6.855 C15.399 6.855 15.399 45.14 15.399 45.14 C15.399 46.617 15.727 47.59 16.383 48.058 C17.039 48.528 18.75 48.761 21.516 48.761 C25.242 48.761 28.131 48.55 30.182 48.129 C32.233 47.707 33.809 47.027 34.91 46.09 C36.129 45.035 39.191 43.347 40.092 41.027 C40.994 38.707 41.762 35.718 42.395 32.062 C42.395 32.062 45.172 32.062 45.172 32.062 C45.172 32.062 44.117 51.996 44.117 51.996 C44.117 51.996 0 51.996 0 51.996 Z" />
 </g>
 <g transform="translate(3.62109, 266.019)" style="fill:#ec6900; fill-rule:nonzero; stroke:none; stroke-width:2.5; stroke-linecap:butt; stroke-linejoin:miter; stroke-dasharray:none;" >
  <path d="M7.41801 17.859 C7.41801 22.992 8.11521 26.749 9.50981 29.127 C10.9033 31.505 13.1016 32.695 16.1016 32.695 C19.2187 32.695 21.4746 31.523 22.8691 29.179 C24.2637 26.836 24.9609 23.062 24.9609 17.859 C24.9609 12.656 24.2637 8.871 22.8691 6.503 C21.4746 4.136 19.2422 2.953 16.1719 2.953 C13.125 2.953 10.9033 4.136 9.50981 6.503 C8.11521 8.871 7.41801 12.656 7.41801 17.859 Z M0 17.859 C0 12.539 1.5 8.232 4.5 4.939 C7.50001 1.646 11.3906 0 16.1719 0 C20.9766 0 24.8672 1.646 27.8437 4.939 C30.8193 8.232 32.3086 12.539 32.3086 17.859 C32.3086 23.156 30.8144 27.445 27.8262 30.726 C24.8379 34.008 20.9531 35.648 16.1719 35.648 C11.3906 35.648 7.50001 34.008 4.5 30.726 C1.5 27.445 0 23.156 0 17.859 Z" />
 </g>
 <g transform="translate(39.4648, 247.315)" style="fill:#ec6900; fill-rule:nonzero; stroke:none; stroke-width:2.5; stroke-linecap:butt; stroke-linejoin:miter; stroke-dasharray:none;" >
  <path d="M0.4219 53.192 C0.4219 53.192 0.4219 50.098 0.4219 50.098 C0.4219 50.098 3.5166 50.028 3.5166 50.028 C4.5469 49.935 5.2041 49.729 5.4844 49.413 C5.7666 49.096 5.9073 48.411 5.9073 47.356 C5.9073 47.356 5.9073 22.817 5.9073 22.817 C5.9073 22.817 0 22.817 0 22.817 C0 22.817 0 19.864 0 19.864 C0 19.864 5.9073 19.864 5.9073 19.864 C5.9073 19.864 5.9073 18.352 5.9073 18.352 C5.9073 12.258 7.0323 7.677 9.2823 4.606 C11.5323 1.536 14.8711 0 19.3008 0 C22.2774 0 24.668 0.663 26.4737 1.987 C28.2784 3.311 29.1797 5.04 29.1797 7.172 C29.1797 8.438 28.8165 9.452 28.0909 10.213 C27.3633 10.975 26.4258 11.356 25.2784 11.356 C24.2237 11.356 23.3262 10.987 22.5879 10.248 C21.8497 9.51 21.4815 8.614 21.4815 7.559 C21.4815 6.974 21.669 6.317 22.044 5.59 C22.418 4.864 22.6065 4.407 22.6065 4.219 C22.6065 3.797 22.3653 3.463 21.8858 3.217 C21.4043 2.971 20.7305 2.848 19.8633 2.848 C17.2627 2.848 15.3819 4.061 14.2207 6.487 C13.0616 8.913 12.4815 12.915 12.4815 18.493 C12.4815 18.493 12.4815 19.864 12.4815 19.864 C12.4815 19.864 20.1797 19.864 20.1797 19.864 C20.1797 19.864 20.1797 22.817 20.1797 22.817 C20.1797 22.817 12.4815 22.817 12.4815 22.817 C12.4815 22.817 12.4815 47.356 12.4815 47.356 C12.4815 48.434 12.6446 49.149 12.9737 49.5 C13.3008 49.852 13.9219 50.028 14.837 50.028 C14.837 50.028 19.2315 50.028 19.2315 50.028 C19.2315 50.028 19.2315 53.192 19.2315 53.192 C19.2315 53.192 0.4219 53.192 0.4219 53.192 Z" />
 </g>
 <g transform="translate(83.4111, 248.511)" style="fill:#ec6900; fill-rule:nonzero; stroke:none; stroke-width:2.5; stroke-linecap:butt; stroke-linejoin:miter; stroke-dasharray:none;" >
  <path d="M12.3409 4.605 C12.3409 4.605 12.3409 39.691 12.3409 39.691 C12.3409 43.325 12.9327 45.756 14.1162 46.986 C15.2989 48.217 17.5549 48.855 20.8829 48.902 C20.8829 48.902 20.8829 51.996 20.8829 51.996 C20.8829 51.996 0 51.996 0 51.996 C0 51.996 0.0362 48.902 0.0362 48.902 C3.3868 48.855 5.6612 48.229 6.8565 47.021 C8.0518 45.814 8.6494 43.371 8.6494 39.691 C8.6494 39.691 8.6494 6.855 8.6494 6.855 C8.6494 5.519 8.3907 4.611 7.875 4.131 C7.3604 3.651 6.3516 3.41 4.8526 3.41 C4.8526 3.41 0.5987 3.41 0.5987 3.41 C0.5987 3.41 0.5987 0 0.5987 0 C0.5987 0 18.5979 0 18.5979 0 C18.5979 0 32.5549 39.761 32.5549 39.761 C32.5549 39.761 46.0899 0 46.0899 0 C46.0899 0 63.6689 0 63.6689 0 C63.6689 0 63.6689 3.41 63.6689 3.41 C63.6689 3.41 59.8369 3.41 59.8369 3.41 C58.3599 3.41 57.3699 3.644 56.8659 4.113 C56.3609 4.582 56.1099 5.496 56.1099 6.855 C56.1099 6.855 56.1099 45.14 56.1099 45.14 C56.1099 46.5 56.3609 47.421 56.8659 47.9 C57.3699 48.381 58.3599 48.621 59.8369 48.621 C59.8369 48.621 63.6689 48.621 63.6689 48.621 C63.6689 48.621 63.6689 51.996 63.6689 51.996 C63.6689 51.996 40.3249 51.996 40.3249 51.996 C40.3249 51.996 40.3249 48.621 40.3249 48.621 C40.3249 48.621 44.6489 48.621 44.6489 48.621 C46.1719 48.621 47.1919 48.381 47.7079 47.9 C48.2229 47.421 48.4809 46.5 48.4809 45.14 C48.4809 45.14 48.4809 4.605 48.4809 4.605 C48.4809 4.605 32.3439 51.996 32.3439 51.996 C32.3439 51.996 29.5319 51.996 29.5319 51.996 C29.5319 51.996 12.3409 4.605 12.3409 4.605 Z" />
 </g>
 <g transform="translate(151.107, 248.511)" style="fill:#ec6900; fill-rule:nonzero; stroke:none; stroke-width:2.5; stroke-linecap:butt; stroke-linejoin:miter; stroke-dasharray:none;" >
  <path d="M0 51.996 C0 51.996 0 48.621 0 48.621 C0 48.621 3.727 48.621 3.727 48.621 C5.25 48.621 6.27 48.381 6.786 47.9 C7.301 47.421 7.559 46.5 7.559 45.14 C7.559 45.14 7.559 6.855 7.559 6.855 C7.559 5.519 7.301 4.611 6.786 4.131 C6.27 3.651 5.25 3.41 3.727 3.41 C3.727 3.41 0 3.41 0 3.41 C0 3.41 0 0 0 0 C0 0 42.118 0 42.118 0 C42.118 0 43.032 18.386 43.032 18.386 C43.032 18.386 39.938 18.386 39.938 18.386 C39.493 15.386 38.836 12.814 37.969 10.67 C37.102 8.525 36.082 6.938 34.911 5.906 C33.762 4.969 32.168 4.295 30.129 3.884 C28.09 3.475 25.219 3.269 21.516 3.269 C18.75 3.269 17.039 3.504 16.383 3.972 C15.727 4.442 15.399 5.402 15.399 6.855 C15.399 6.855 15.399 23.343 15.399 23.343 C15.399 23.343 16.418 23.343 16.418 23.343 C20.145 23.343 22.805 22.611 24.399 21.146 C25.993 19.682 26.953 17.098 27.282 13.394 C27.282 13.394 30.305 13.394 30.305 13.394 C30.305 13.394 30.305 36.316 30.305 36.316 C30.305 36.316 27.282 36.316 27.282 36.316 C26.953 32.59 26.004 30.011 24.434 28.582 C22.864 27.153 20.192 26.437 16.418 26.437 C16.418 26.437 15.399 26.437 15.399 26.437 C15.399 26.437 15.399 45.14 15.399 45.14 C15.399 46.64 15.75 47.632 16.454 48.111 C17.157 48.592 19.032 48.832 22.079 48.832 C25.454 48.832 28.178 48.686 30.252 48.392 C32.327 48.099 34.019 47.625 35.332 46.968 C36.902 46.173 38.221 44.619 39.288 42.31 C40.354 40.003 41.297 36.656 42.118 32.273 C42.118 32.273 44.86 32.273 44.86 32.273 C44.86 32.273 43.77 51.996 43.77 51.996 C43.77 51.996 0 51.996 0 51.996 Z" />
 </g>
 <g transform="translate(201.787, 248.511)" style="fill:#ec6900; fill-rule:nonzero; stroke:none; stroke-width:2.5; stroke-linecap:butt; stroke-linejoin:miter; stroke-dasharray:none;" >
  <path d="M15.399 6.855 C15.399 6.855 15.399 45.14 15.399 45.14 C15.399 46.476 15.645 47.379 16.137 47.847 C16.629 48.317 17.625 48.55 19.125 48.55 C19.125 48.55 24.961 48.55 24.961 48.55 C30.516 48.55 34.476 46.823 36.844 43.365 C39.211 39.908 40.395 34.125 40.395 26.015 C40.395 17.929 39.106 12.141 36.527 8.648 C33.949 5.156 29.742 3.41 23.906 3.41 C23.906 3.41 19.125 3.41 19.125 3.41 C17.649 3.41 16.658 3.644 16.154 4.113 C15.65 4.582 15.399 5.496 15.399 6.855 Z M0 51.996 C0 51.996 0 48.55 0 48.55 C0 48.55 3.727 48.55 3.727 48.55 C5.274 48.55 6.298 48.317 6.803 47.847 C7.307 47.379 7.559 46.476 7.559 45.14 C7.559 45.14 7.559 6.855 7.559 6.855 C7.559 5.519 7.3 4.611 6.785 4.131 C6.27 3.651 5.25 3.41 3.727 3.41 C3.727 3.41 0 3.41 0 3.41 C0 3.41 0 0 0 0 C0 0 25.84 0 25.84 0 C33.434 0 39.27 2.244 43.348 6.732 C47.426 11.22 49.465 17.648 49.465 26.015 C49.465 34.031 47.502 40.365 43.576 45.017 C39.651 49.671 34.289 51.996 27.492 51.996 C27.492 51.996 0 51.996 0 51.996 Z" />
 </g>
 <g transform="translate(256.37, 248.511)" style="fill:#ec6900; fill-rule:nonzero; stroke:none; stroke-width:2.5; stroke-linecap:butt; stroke-linejoin:miter; stroke-dasharray:none;" >
  <path d="M0 51.996 C0 51.996 0 48.621 0 48.621 C0 48.621 3.867 48.621 3.867 48.621 C5.39 48.621 6.421 48.375 6.961 47.883 C7.5 47.39 7.769 46.476 7.769 45.14 C7.769 45.14 7.769 6.855 7.769 6.855 C7.769 5.519 7.5 4.611 6.961 4.131 C6.421 3.651 5.39 3.41 3.867 3.41 C3.867 3.41 0 3.41 0 3.41 C0 3.41 0 0 0 0 C0 0 23.449 0 23.449 0 C23.449 0 23.449 3.41 23.449 3.41 C23.449 3.41 19.582 3.41 19.582 3.41 C18.082 3.41 17.068 3.644 16.541 4.113 C16.013 4.582 15.75 5.496 15.75 6.855 C15.75 6.855 15.75 45.14 15.75 45.14 C15.75 46.5 16.013 47.421 16.541 47.9 C17.068 48.381 18.082 48.621 19.582 48.621 C19.582 48.621 23.449 48.621 23.449 48.621 C23.449 48.621 23.449 51.996 23.449 51.996 C23.449 51.996 0 51.996 0 51.996 Z" />
 </g>
 <g transform="translate(285.007, 247.386)" style="fill:#ec6900; fill-rule:nonzero; stroke:none; stroke-width:2.5; stroke-linecap:butt; stroke-linejoin:miter; stroke-dasharray:none;" >
  <path d="M40.816 34.91 C40.816 34.91 44.226 35.332 44.226 35.332 C43.431 41.332 41.232 46.025 37.635 49.412 C34.036 52.8 29.461 54.492 23.906 54.492 C21.187 54.492 18.65 54.088 16.295 53.279 C13.939 52.47 11.8 51.27 9.879 49.675 C6.597 46.957 4.131 43.717 2.478 39.955 C0.826 36.193 0 31.922 0 27.14 C0 23.508 0.521 20.115 1.564 16.963 C2.607 13.811 4.148 10.933 6.187 8.332 C8.437 5.519 10.986 3.427 13.834 2.056 C16.681 0.685 19.898 0 23.484 0 C25.945 0 28.248 0.392 30.392 1.177 C32.537 1.963 34.546 3.152 36.422 4.746 C36.422 4.746 39.164 0.281 39.164 0.281 C39.164 0.281 41.906 0.281 41.906 0.281 C41.906 0.281 42.855 21.234 42.855 21.234 C42.855 21.234 40.043 21.375 40.043 21.375 C38.988 15.468 37.119 10.957 34.435 7.84 C31.751 4.723 28.406 3.164 24.398 3.164 C19.383 3.164 15.621 5.156 13.113 9.14 C10.605 13.125 9.351 19.125 9.351 27.14 C9.351 35.274 10.611 41.279 13.131 45.158 C15.65 49.038 19.558 50.976 24.855 50.976 C28.98 50.976 32.408 49.611 35.139 46.881 C37.868 44.151 39.762 40.16 40.816 34.91 Z" />
 </g>
 <g transform="translate(333.683, 248.511)" style="fill:#ec6900; fill-rule:nonzero; stroke:none; stroke-width:2.5; stroke-linecap:butt; stroke-linejoin:miter; stroke-dasharray:none;" >
  <path d="M0 51.996 C0 51.996 0 48.621 0 48.621 C0 48.621 3.867 48.621 3.867 48.621 C5.391 48.621 6.421 48.375 6.961 47.883 C7.5 47.39 7.77 46.476 7.77 45.14 C7.77 45.14 7.77 6.855 7.77 6.855 C7.77 5.519 7.5 4.611 6.961 4.131 C6.421 3.651 5.391 3.41 3.867 3.41 C3.867 3.41 0 3.41 0 3.41 C0 3.41 0 0 0 0 C0 0 23.449 0 23.449 0 C23.449 0 23.449 3.41 23.449 3.41 C23.449 3.41 19.582 3.41 19.582 3.41 C18.082 3.41 17.068 3.644 16.541 4.113 C16.014 4.582 15.75 5.496 15.75 6.855 C15.75 6.855 15.75 45.14 15.75 45.14 C15.75 46.5 16.014 47.421 16.541 47.9 C17.068 48.381 18.082 48.621 19.582 48.621 C19.582 48.621 23.449 48.621 23.449 48.621 C23.449 48.621 23.449 51.996 23.449 51.996 C23.449 51.996 0 51.996 0 51.996 Z" />
 </g>
 <g transform="translate(361.301, 248.511)" style="fill:#ec6900; fill-rule:nonzero; stroke:none; stroke-width:2.5; stroke-linecap:butt; stroke-linejoin:miter; stroke-dasharray:none;" >
  <path d="M0 51.996 C0 51.996 0 48.902 0 48.902 C3.023 48.669 5.068 47.959 6.135 46.775 C7.201 45.592 7.734 43.23 7.734 39.691 C7.734 39.691 7.734 5.695 7.734 5.695 C7.242 4.828 6.527 4.218 5.59 3.867 C4.652 3.515 3.199 3.34 1.23 3.34 C1.23 3.34 0 3.34 0 3.34 C0 3.34 0 0 0 0 C0 0 14.062 0 14.062 0 C14.062 0 42.715 39.269 42.715 39.269 C42.715 39.269 42.715 12.34 42.715 12.34 C42.715 8.59 42.129 6.123 40.957 4.939 C39.784 3.756 37.512 3.141 34.137 3.093 C34.137 3.093 34.137 0 34.137 0 C34.137 0 54.246 0 54.246 0 C54.246 0 54.246 3.093 54.246 3.093 C51.199 3.234 49.125 3.92 48.023 5.15 C46.921 6.381 46.371 8.777 46.371 12.34 C46.371 12.34 46.371 53.297 46.371 53.297 C46.371 53.297 43.488 53.297 43.488 53.297 C43.488 53.297 11.461 9.597 11.461 9.597 C11.461 9.597 11.461 39.691 11.461 39.691 C11.461 43.347 12.07 45.797 13.289 47.039 C14.507 48.282 16.757 48.902 20.039 48.902 C20.039 48.902 20.039 51.996 20.039 51.996 C20.039 51.996 0 51.996 0 51.996 Z" />
 </g>
 <g transform="translate(419.715, 248.511)" style="fill:#ec6900; fill-rule:nonzero; stroke:none; stroke-width:2.5; stroke-linecap:butt; stroke-linejoin:miter; stroke-dasharray:none;" >
  <path d="M0 51.996 C0 51.996 0 48.621 0 48.621 C0 48.621 3.727 48.621 3.727 48.621 C5.25 48.621 6.27 48.381 6.785 47.9 C7.301 47.421 7.559 46.5 7.559 45.14 C7.559 45.14 7.559 6.855 7.559 6.855 C7.559 5.519 7.301 4.611 6.785 4.131 C6.27 3.651 5.25 3.41 3.727 3.41 C3.727 3.41 0 3.41 0 3.41 C0 3.41 0 0 0 0 C0 0 42.118 0 42.118 0 C42.118 0 43.032 18.386 43.032 18.386 C43.032 18.386 39.938 18.386 39.938 18.386 C39.493 15.386 38.836 12.814 37.969 10.67 C37.102 8.525 36.082 6.938 34.91 5.906 C33.762 4.969 32.168 4.295 30.129 3.884 C28.09 3.475 25.219 3.269 21.516 3.269 C18.75 3.269 17.039 3.504 16.383 3.972 C15.727 4.442 15.399 5.402 15.399 6.855 C15.399 6.855 15.399 23.343 15.399 23.343 C15.399 23.343 16.418 23.343 16.418 23.343 C20.145 23.343 22.805 22.611 24.399 21.146 C25.993 19.682 26.953 17.098 27.282 13.394 C27.282 13.394 30.305 13.394 30.305 13.394 C30.305 13.394 30.305 36.316 30.305 36.316 C30.305 36.316 27.282 36.316 27.282 36.316 C26.953 32.59 26.004 30.011 24.434 28.582 C22.864 27.153 20.192 26.437 16.418 26.437 C16.418 26.437 15.399 26.437 15.399 26.437 C15.399 26.437 15.399 45.14 15.399 45.14 C15.399 46.64 15.75 47.632 16.453 48.111 C17.157 48.592 19.032 48.832 22.078 48.832 C25.453 48.832 28.178 48.686 30.252 48.392 C32.327 48.099 34.019 47.625 35.332 46.968 C36.902 46.173 38.221 44.619 39.287 42.31 C40.354 40.003 41.297 36.656 42.118 32.273 C42.118 32.273 44.86 32.273 44.86 32.273 C44.86 32.273 43.77 51.996 43.77 51.996 C43.77 51.996 0 51.996 0 51.996 Z" />
 </g>
 <g transform="translate(3.78027, 97.6875)" style="fill:#004a2a; fill-rule:nonzero; stroke:none; stroke-width:2.5; stroke-linecap:butt; stroke-linejoin:miter; stroke-dasharray:none;" >
  <path d="M15.5537 0 C15.5537 0 15.5537 2.2559 15.5537 2.2559 C15.5537 2.2559 13.0566 2.2559 13.0566 2.2559 C11.1367 2.2559 10.5127 2.7365 10.5127 4.5605 C10.5127 4.5605 10.5127 23.9545 10.5127 23.9545 C10.5127 30.0505 13.5371 32.8345 20.1133 32.8345 C24.4345 32.8345 27.3144 31.2985 28.6582 28.3705 C29.2832 27.0265 29.3789 24.8185 29.3789 21.6985 C29.3789 21.6985 29.3789 6.5765 29.3789 6.5765 C29.3789 3.6485 28.7549 2.2559 25.9218 2.2559 C25.9218 2.2559 23.8095 2.2559 23.8095 2.2559 C23.8095 2.2559 23.8095 0 23.8095 0 C23.8095 0 37.0107 0 37.0107 0 C37.0107 0 37.0107 2.2559 37.0107 2.2559 C37.0107 2.2559 35.2343 2.2559 35.2343 2.2559 C32.498 2.2559 31.7304 3.5045 31.7304 6.5765 C31.7304 6.5765 31.7304 21.8905 31.7304 21.8905 C31.7304 31.2985 28.2744 35.4755 18.4336 35.4755 C9.74413 35.4755 5.32911 31.5865 5.32911 23.9065 C5.32911 23.9065 5.32911 4.5605 5.32911 4.5605 C5.32911 2.7365 4.80078 2.2559 2.78418 2.2559 C2.78418 2.2559 0 2.2559 0 2.2559 C0 2.2559 0 0 0 0 C0 0 15.5537 0 15.5537 0 Z" />
 </g>
 <g transform="translate(44.0039, 97.6875)" style="fill:#004a2a; fill-rule:nonzero; stroke:none; stroke-width:2.5; stroke-linecap:butt; stroke-linejoin:miter; stroke-dasharray:none;" >
  <path d="M0 32.5955 C4.416 32.2585 5.1357 30.7225 5.1357 26.4505 C5.1357 26.4505 5.1357 3.7925 5.1357 3.7925 C4.416 2.4965 3.1201 2.209 0.8154 2.209 C0.8154 2.209 0 2.209 0 2.209 C0 2.209 0 0 0 0 C0 0 9.3604 0 9.3604 0 C9.3604 0 28.4658 26.1625 28.4658 26.1625 C28.4658 26.1625 28.4658 8.2085 28.4658 8.2085 C28.4658 3.5525 27.5537 2.1123 22.7539 2.0645 C22.7539 2.0645 22.7539 0 22.7539 0 C22.7539 0 36.1475 0 36.1475 0 C36.1475 0 36.1475 2.0645 36.1475 2.0645 C31.8272 2.2559 30.915 3.7925 30.915 8.2085 C30.915 8.2085 30.915 35.5235 30.915 35.5235 C30.915 35.5235 28.9941 35.5235 28.9941 35.5235 C28.9941 35.5235 7.6318 6.3845 7.6318 6.3845 C7.6318 6.3845 7.6318 26.4505 7.6318 26.4505 C7.6318 30.9625 8.6406 32.5955 13.3447 32.5955 C13.3447 32.5955 13.3447 34.6595 13.3447 34.6595 C13.3447 34.6595 0 34.6595 0 34.6595 C0 34.6595 0 32.5955 0 32.5955 Z" />
 </g>
 <g transform="translate(84.4189, 97.6875)" style="fill:#004a2a; fill-rule:nonzero; stroke:none; stroke-width:2.5; stroke-linecap:butt; stroke-linejoin:miter; stroke-dasharray:none;" >
  <path d="M0 32.4025 C0 32.4025 2.5918 32.4025 2.5918 32.4025 C4.5606 32.4025 5.1846 31.9225 5.1846 30.0985 C5.1846 30.0985 5.1846 4.5605 5.1846 4.5605 C5.1846 2.7365 4.5606 2.2559 2.5918 2.2559 C2.5918 2.2559 0 2.2559 0 2.2559 C0 2.2559 0 0 0 0 C0 0 15.6491 0 15.6491 0 C15.6491 0 15.6491 2.2559 15.6491 2.2559 C15.6491 2.2559 13.0577 2.2559 13.0577 2.2559 C11.0889 2.2559 10.5127 2.7365 10.5127 4.5605 C10.5127 4.5605 10.5127 30.0985 10.5127 30.0985 C10.5127 31.9225 11.0889 32.4025 13.0577 32.4025 C13.0577 32.4025 15.6491 32.4025 15.6491 32.4025 C15.6491 32.4025 15.6491 34.6595 15.6491 34.6595 C15.6491 34.6595 0 34.6595 0 34.6595 C0 34.6595 0 32.4025 0 32.4025 Z" />
 </g>
 <g transform="translate(102.418, 97.6875)" style="fill:#004a2a; fill-rule:nonzero; stroke:none; stroke-width:2.5; stroke-linecap:butt; stroke-linejoin:miter; stroke-dasharray:none;" >
  <path d="M16.658 35.5235 C16.658 35.5235 4.513 4.3685 4.513 4.3685 C3.793 2.4965 3.457 2.2559 1.057 2.2559 C1.057 2.2559 0 2.2559 0 2.2559 C0 2.2559 0 0 0 0 C0 0 14.738 0 14.738 0 C14.738 0 14.738 2.2559 14.738 2.2559 C14.738 2.2559 12.962 2.2559 12.962 2.2559 C10.994 2.2559 10.082 2.4485 10.082 3.5525 C10.082 3.8885 10.177 4.5125 10.465 5.2325 C10.465 5.2325 18.962 26.9305 18.962 26.9305 C18.962 26.9305 26.499 7.5365 26.499 7.5365 C26.931 6.3845 27.123 5.4245 27.123 4.8005 C27.123 3.0245 26.019 2.2559 23.666 2.2559 C23.666 2.2559 22.323 2.2559 22.323 2.2559 C22.323 2.2559 22.323 0 22.323 0 C22.323 0 34.852 0 34.852 0 C34.852 0 34.852 2.2559 34.852 2.2559 C34.755 2.2559 34.612 2.2559 34.516 2.2559 C31.731 2.2559 30.771 3.4565 29.667 6.3365 C29.667 6.3365 18.53 35.5235 18.53 35.5235 C18.53 35.5235 16.658 35.5235 16.658 35.5235 Z" />
 </g>
 <g transform="translate(139.235, 97.6875)" style="fill:#004a2a; fill-rule:nonzero; stroke:none; stroke-width:2.5; stroke-linecap:butt; stroke-linejoin:miter; stroke-dasharray:none;" >
  <path d="M0 32.4025 C0 32.4025 2.496 32.4025 2.496 32.4025 C4.416 32.4025 5.04 31.9705 5.04 30.0985 C5.04 30.0985 5.04 4.5605 5.04 4.5605 C5.04 2.6885 4.416 2.2559 2.496 2.2559 C2.496 2.2559 0 2.2559 0 2.2559 C0 2.2559 0 0 0 0 C0 0 28.082 0 28.082 0 C28.082 0 28.706 12.2415 28.706 12.2415 C28.706 12.2415 26.642 12.2415 26.642 12.2415 C26.018 8.0175 24.77 5.2325 23.282 3.9365 C21.601 2.5435 18.769 2.1602 14.353 2.1602 C11.184 2.1602 10.272 2.3047 10.272 4.5605 C10.272 4.5605 10.272 15.5535 10.272 15.5535 C10.513 15.5535 10.704 15.5535 10.945 15.5535 C15.889 15.5535 17.761 13.9215 18.193 8.9285 C18.193 8.9285 20.209 8.9285 20.209 8.9285 C20.209 8.9285 20.209 24.1945 20.209 24.1945 C20.209 24.1945 18.193 24.1945 18.193 24.1945 C17.761 19.2015 15.937 17.6175 10.945 17.6175 C10.753 17.6175 10.513 17.6175 10.272 17.6175 C10.272 17.6175 10.272 30.0985 10.272 30.0985 C10.272 32.4515 11.328 32.5465 14.737 32.5465 C18.769 32.5465 21.65 32.2585 23.57 31.2985 C25.778 30.1945 27.074 26.9785 28.082 21.5055 C28.082 21.5055 29.906 21.5055 29.906 21.5055 C29.906 21.5055 29.186 34.6595 29.186 34.6595 C29.186 34.6595 0 34.6595 0 34.6595 C0 34.6595 0 32.4025 0 32.4025 Z" />
 </g>
 <g transform="translate(173.699, 97.6875)" style="fill:#004a2a; fill-rule:nonzero; stroke:none; stroke-width:2.5; stroke-linecap:butt; stroke-linejoin:miter; stroke-dasharray:none;" >
  <path d="M10.272 15.5535 C10.272 15.5535 12.625 15.6495 12.625 15.6495 C13.201 15.6975 13.729 15.6975 14.257 15.6975 C20.641 15.6975 23.473 13.7295 23.473 8.8325 C23.473 3.9845 21.169 2.1602 15.841 2.1602 C15.841 2.1602 12.72 2.1602 12.72 2.1602 C10.704 2.1602 10.272 2.6405 10.272 4.2725 C10.272 4.2725 10.272 15.5535 10.272 15.5535 Z M0 32.4025 C0 32.4025 2.496 32.4025 2.496 32.4025 C4.416 32.4025 5.04 31.9705 5.04 30.0985 C5.04 30.0985 5.04 4.5605 5.04 4.5605 C5.04 2.6885 4.416 2.2559 2.496 2.2559 C2.496 2.2559 0 2.2559 0 2.2559 C0 2.2559 0 0 0 0 C0 0 19.201 0 19.201 0 C25.009 0 28.898 3.4085 28.898 8.4975 C28.898 13.5375 25.346 16.3695 18.289 17.1375 C22.177 17.6655 24.194 19.5385 25.058 23.3305 C25.058 23.3305 26.354 28.7545 26.354 28.7545 C26.834 30.8665 27.458 31.9225 28.514 31.9225 C29.81 31.9225 30.386 30.2905 30.482 26.8825 C30.482 26.8825 32.306 26.8825 32.306 26.8825 C32.306 27.2665 32.354 27.6505 32.354 27.9865 C32.354 32.8825 30.194 35.5235 26.546 35.5235 C22.754 35.5235 21.362 33.4115 20.833 28.7545 C20.833 28.7545 20.305 23.9545 20.305 23.9545 C19.825 19.3455 17.473 17.8575 12.864 17.8575 C12.864 17.8575 10.272 17.8575 10.272 17.8575 C10.272 17.8575 10.272 30.0985 10.272 30.0985 C10.272 31.9705 10.848 32.4025 12.769 32.4025 C12.769 32.4025 15.745 32.4025 15.745 32.4025 C15.745 32.4025 15.745 34.6595 15.745 34.6595 C15.745 34.6595 0 34.6595 0 34.6595 C0 34.6595 0 32.4025 0 32.4025 Z" />
 </g>
 <g transform="translate(209.842, 96.8711)" style="fill:#004a2a; fill-rule:nonzero; stroke:none; stroke-width:2.5; stroke-linecap:butt; stroke-linejoin:miter; stroke-dasharray:none;" >
  <path d="M1.92 36.0519 C1.92 36.0519 0.24 36.0519 0.24 36.0519 C0.24 36.0519 0 22.1299 0 22.1299 C0 22.1299 1.968 22.1299 1.968 22.1299 C3.408 30.0509 7.441 34.1799 13.585 34.1799 C18.818 34.1799 21.698 31.5389 21.698 27.3149 C21.698 25.2989 20.93 23.7139 19.586 22.7539 C17.906 21.5539 15.217 21.0739 11.713 20.1139 C4.033 18.0499 0.336 16.1299 0.336 9.7939 C0.336 3.8409 4.321 0 10.561 0 C14.065 0 17.137 1.1523 19.538 3.3599 C19.538 3.3599 21.41 0.4805 21.41 0.4805 C21.41 0.4805 23.186 0.4805 23.186 0.4805 C23.186 0.4805 23.714 12.9609 23.714 12.9609 C23.714 12.9609 21.842 12.9609 21.842 12.9609 C20.018 5.8089 16.225 2.209 10.561 2.209 C6.337 2.209 3.936 4.3209 3.936 8.0169 C3.936 12.6259 7.536 13.1539 13.921 14.7379 C17.378 15.6019 20.258 16.3219 22.466 18.3379 C24.338 20.0659 25.394 22.6589 25.394 25.7309 C25.394 32.4029 21.17 36.3399 13.489 36.3399 C9.745 36.3399 6.241 34.9959 3.936 32.7389 C3.936 32.7389 1.92 36.0519 1.92 36.0519 Z" />
 </g>
 <g transform="translate(239.89, 97.6875)" style="fill:#004a2a; fill-rule:nonzero; stroke:none; stroke-width:2.5; stroke-linecap:butt; stroke-linejoin:miter; stroke-dasharray:none;" >
  <path d="M0 32.4025 C0 32.4025 2.592 32.4025 2.592 32.4025 C4.56 32.4025 5.184 31.9225 5.184 30.0985 C5.184 30.0985 5.184 4.5605 5.184 4.5605 C5.184 2.7365 4.56 2.2559 2.592 2.2559 C2.592 2.2559 0 2.2559 0 2.2559 C0 2.2559 0 0 0 0 C0 0 15.649 0 15.649 0 C15.649 0 15.649 2.2559 15.649 2.2559 C15.649 2.2559 13.057 2.2559 13.057 2.2559 C11.089 2.2559 10.513 2.7365 10.513 4.5605 C10.513 4.5605 10.513 30.0985 10.513 30.0985 C10.513 31.9225 11.089 32.4025 13.057 32.4025 C13.057 32.4025 15.649 32.4025 15.649 32.4025 C15.649 32.4025 15.649 34.6595 15.649 34.6595 C15.649 34.6595 0 34.6595 0 34.6595 C0 34.6595 0 32.4025 0 32.4025 Z" />
 </g>
 <g transform="translate(260.482, 97.6875)" style="fill:#004a2a; fill-rule:nonzero; stroke:none; stroke-width:2.5; stroke-linecap:butt; stroke-linejoin:miter; stroke-dasharray:none;" >
  <path d="M20.209 32.4025 C20.209 32.4025 23.282 32.4025 23.282 32.4025 C23.282 32.4025 23.282 34.6595 23.282 34.6595 C23.282 34.6595 6.864 34.6595 6.864 34.6595 C6.864 34.6595 6.864 32.4025 6.864 32.4025 C6.864 32.4025 9.936 32.4025 9.936 32.4025 C11.857 32.4025 12.481 31.9705 12.481 30.0985 C12.481 30.0985 12.481 4.3685 12.481 4.3685 C12.481 1.8242 11.713 1.8242 9.312 1.8242 C4.704 1.8242 2.928 5.2805 1.824 13.2975 C1.824 13.2975 0 13.2975 0 13.2975 C0 13.2975 0.672 0 0.672 0 C0.672 0 29.474 0 29.474 0 C29.474 0 30.194 13.2975 30.194 13.2975 C30.194 13.2975 28.37 13.2975 28.37 13.2975 C27.074 4.4165 25.442 1.8242 19.921 1.8242 C18.145 1.8242 17.713 2.4005 17.713 4.3685 C17.713 4.3685 17.713 30.0985 17.713 30.0985 C17.713 31.9705 18.289 32.4025 20.209 32.4025 Z" />
 </g>
 <g transform="translate(292.881, 97.6875)" style="fill:#004a2a; fill-rule:nonzero; stroke:none; stroke-width:2.5; stroke-linecap:butt; stroke-linejoin:miter; stroke-dasharray:none;" >
  <path d="M22.274 32.4025 C22.274 32.4025 25.25 32.4025 25.25 32.4025 C25.25 32.4025 25.25 34.6595 25.25 34.6595 C25.25 34.6595 8.977 34.6595 8.977 34.6595 C8.977 34.6595 8.977 32.4025 8.977 32.4025 C8.977 32.4025 12.001 32.4025 12.001 32.4025 C13.873 32.4025 14.545 31.9225 14.545 30.0985 C14.545 30.0985 14.545 20.3065 14.545 20.3065 C14.545 20.3065 4.848 4.8965 4.848 4.8965 C3.697 3.0245 3.168 2.2559 0.912 2.2559 C0.912 2.2559 0 2.2559 0 2.2559 C0 2.2559 0 0 0 0 C0 0 14.786 0 14.786 0 C14.786 0 14.786 2.2559 14.786 2.2559 C14.786 2.2559 12.817 2.2559 12.817 2.2559 C11.185 2.2559 10.321 2.5435 10.321 3.3605 C10.321 3.8405 10.609 4.3205 11.041 5.0405 C11.041 5.0405 18.674 17.0895 18.674 17.0895 C18.674 17.0895 24.962 6.1445 24.962 6.1445 C25.347 5.4725 25.538 4.8965 25.538 4.2725 C25.538 2.9275 24.434 2.2559 22.226 2.2559 C22.226 2.2559 20.882 2.2559 20.882 2.2559 C20.882 2.2559 20.882 0 20.882 0 C20.882 0 33.555 0 33.555 0 C33.555 0 33.555 2.2559 33.555 2.2559 C33.555 2.2559 32.643 2.2559 32.643 2.2559 C30.435 2.2559 29.763 3.0245 28.659 4.8965 C28.659 4.8965 19.778 20.0655 19.778 20.0655 C19.778 20.0655 19.778 30.0985 19.778 30.0985 C19.778 31.9225 20.402 32.4025 22.274 32.4025 Z" />
 </g>
 <g transform="translate(339.393, 96.8232)" style="fill:#004a2a; fill-rule:nonzero; stroke:none; stroke-width:2.5; stroke-linecap:butt; stroke-linejoin:miter; stroke-dasharray:none;" >
  <path d="M16.513 34.1788 C23.426 34.1788 26.786 28.8508 26.786 18.1938 C26.786 7.4408 23.569 2.2081 16.513 2.2081 C9.552 2.2081 6.24 7.4408 6.24 18.1938 C6.24 28.8988 9.504 34.1788 16.513 34.1788 Z M4.512 5.3288 C7.584 1.8243 11.712 0 16.513 0 C21.409 0 25.25 1.7286 28.418 5.2808 C31.442 8.6888 32.979 13.0088 32.979 18.1938 C32.979 23.3308 31.731 27.3148 28.754 30.7708 C25.538 34.5148 21.505 36.3398 16.513 36.3398 C11.521 36.3398 7.536 34.5638 4.272 30.7708 C1.296 27.3148 0 23.2818 0 18.1938 C0 13.0578 1.584 8.6408 4.512 5.3288 Z" />
 </g>
 <g transform="translate(373.809, 97.6875)" style="fill:#004a2a; fill-rule:nonzero; stroke:none; stroke-width:2.5; stroke-linecap:butt; stroke-linejoin:miter; stroke-dasharray:none;" >
  <path d="M0 32.4025 C0 32.4025 2.496 32.4025 2.496 32.4025 C4.416 32.4025 5.04 31.9705 5.04 30.0985 C5.04 30.0985 5.04 4.5605 5.04 4.5605 C5.04 2.6885 4.416 2.2559 2.496 2.2559 C2.496 2.2559 0 2.2559 0 2.2559 C0 2.2559 0 0 0 0 C0 0 28.082 0 28.082 0 C28.082 0 28.706 12.2415 28.706 12.2415 C28.706 12.2415 26.642 12.2415 26.642 12.2415 C26.018 8.0175 24.77 5.2325 23.281 3.9365 C21.601 2.5435 18.769 2.1602 14.353 2.1602 C11.184 2.1602 10.273 2.3047 10.273 4.5605 C10.273 4.5605 10.273 15.5535 10.273 15.5535 C10.512 15.5535 10.704 15.5535 10.944 15.5535 C15.889 15.5535 17.761 13.9215 18.193 8.9285 C18.193 8.9285 20.209 8.9285 20.209 8.9285 C20.209 8.9285 20.209 24.1945 20.209 24.1945 C20.209 24.1945 18.193 24.1945 18.193 24.1945 C17.761 19.2015 15.937 17.6175 10.944 17.6175 C10.754 17.6175 10.512 17.6175 10.273 17.6175 C10.273 17.6175 10.273 30.0985 10.273 30.0985 C10.273 31.9705 10.848 32.4025 12.769 32.4025 C12.769 32.4025 15.937 32.4025 15.937 32.4025 C15.937 32.4025 15.937 34.6595 15.937 34.6595 C15.937 34.6595 0 34.6595 0 34.6595 C0 34.6595 0 32.4025 0 32.4025 Z" />
 </g>
 <g transform="translate(419.84, 97.6875)" style="fill:#004a2a; fill-rule:nonzero; stroke:none; stroke-width:2.5; stroke-linecap:butt; stroke-linejoin:miter; stroke-dasharray:none;" >
  <path d="M8.209 26.4505 C8.209 31.0105 9.217 32.5465 13.921 32.5955 C13.921 32.5955 13.921 34.6595 13.921 34.6595 C13.921 34.6595 0 34.6595 0 34.6595 C0 34.6595 0 32.5955 0 32.5955 C4.848 32.5465 5.761 30.9625 5.761 26.4505 C5.761 26.4505 5.761 4.5605 5.761 4.5605 C5.761 2.6885 5.137 2.2559 3.216 2.2559 C3.216 2.2559 0.384 2.2559 0.384 2.2559 C0.384 2.2559 0.384 0 0.384 0 C0.384 0 12.385 0 12.385 0 C12.385 0 21.698 26.4985 21.698 26.4985 C21.698 26.4985 30.723 0 30.723 0 C30.723 0 42.435 0 42.435 0 C42.435 0 42.435 2.2559 42.435 2.2559 C42.435 2.2559 39.891 2.2559 39.891 2.2559 C37.971 2.2559 37.395 2.6885 37.395 4.5605 C37.395 4.5605 37.395 30.0985 37.395 30.0985 C37.395 31.9705 37.971 32.4025 39.891 32.4025 C39.891 32.4025 42.435 32.4025 42.435 32.4025 C42.435 32.4025 42.435 34.6595 42.435 34.6595 C42.435 34.6595 26.882 34.6595 26.882 34.6595 C26.882 34.6595 26.882 32.4025 26.882 32.4025 C26.882 32.4025 29.763 32.4025 29.763 32.4025 C31.682 32.4025 32.306 31.9705 32.306 30.0985 C32.306 30.0985 32.306 3.0725 32.306 3.0725 C32.306 3.0725 21.554 34.6595 21.554 34.6595 C21.554 34.6595 19.681 34.6595 19.681 34.6595 C19.681 34.6595 8.209 3.0725 8.209 3.0725 C8.209 3.0725 8.209 26.4505 8.209 26.4505 Z" />
 </g>
 <g transform="translate(466.927, 97.6875)" style="fill:#004a2a; fill-rule:nonzero; stroke:none; stroke-width:2.5; stroke-linecap:butt; stroke-linejoin:miter; stroke-dasharray:none;" >
  <path d="M0 32.4025 C0 32.4025 2.593 32.4025 2.593 32.4025 C4.561 32.4025 5.185 31.9225 5.185 30.0985 C5.185 30.0985 5.185 4.5605 5.185 4.5605 C5.185 2.7365 4.561 2.2559 2.593 2.2559 C2.593 2.2559 0 2.2559 0 2.2559 C0 2.2559 0 0 0 0 C0 0 15.65 0 15.65 0 C15.65 0 15.65 2.2559 15.65 2.2559 C15.65 2.2559 13.057 2.2559 13.057 2.2559 C11.089 2.2559 10.513 2.7365 10.513 4.5605 C10.513 4.5605 10.513 30.0985 10.513 30.0985 C10.513 31.9225 11.089 32.4025 13.057 32.4025 C13.057 32.4025 15.65 32.4025 15.65 32.4025 C15.65 32.4025 15.65 34.6595 15.65 34.6595 C15.65 34.6595 0 34.6595 0 34.6595 C0 34.6595 0 32.4025 0 32.4025 Z" />
 </g>
 <g transform="translate(483.247, 97.1113)" style="fill:#004a2a; fill-rule:nonzero; stroke:none; stroke-width:2.5; stroke-linecap:butt; stroke-linejoin:miter; stroke-dasharray:none;" >
  <path d="M16.177 7.5847 C16.177 7.5847 10.705 21.5067 10.705 21.5067 C10.705 21.5067 21.89 21.5067 21.89 21.5067 C21.89 21.5067 16.177 7.5847 16.177 7.5847 Z M18.482 0 C18.482 0 30.722 30.5787 30.722 30.5787 C31.49 32.4517 32.066 32.9787 34.035 32.9787 C34.323 32.9787 34.659 32.9307 34.995 32.9307 C34.995 32.9307 34.995 35.2357 34.995 35.2357 C34.995 35.2357 20.642 35.2357 20.642 35.2357 C20.642 35.2357 20.642 32.9307 20.642 32.9307 C20.642 32.9307 22.465 32.9307 22.465 32.9307 C24.482 32.9307 25.394 32.7867 25.394 31.6827 C25.394 31.2987 25.25 30.7227 24.962 30.0027 C24.962 30.0027 22.753 23.9547 22.753 23.9547 C22.753 23.9547 9.84 23.9547 9.84 23.9547 C9.84 23.9547 8.353 27.6987 8.353 27.6987 C7.92 28.8027 7.68 29.9547 7.68 30.5787 C7.68 32.1157 8.88 32.9307 11.185 32.9307 C11.185 32.9307 12.385 32.9307 12.385 32.9307 C12.385 32.9307 12.385 35.2357 12.385 35.2357 C12.385 35.2357 0 35.2357 0 35.2357 C0 35.2357 0 32.9307 0 32.9307 C0.144 32.9307 0.24 32.9307 0.384 32.9307 C3.216 32.9307 4.176 31.8267 5.328 28.8987 C5.328 28.8987 16.609 0 16.609 0 C16.609 0 18.482 0 18.482 0 Z" />
 </g>
 <g transform="translate(518.431, 97.6875)" style="fill:#004a2a; fill-rule:nonzero; stroke:none; stroke-width:2.5; stroke-linecap:butt; stroke-linejoin:miter; stroke-dasharray:none;" >
  <path d="M8.209 26.4505 C8.209 31.0105 9.216 32.5465 13.921 32.5955 C13.921 32.5955 13.921 34.6595 13.921 34.6595 C13.921 34.6595 0 34.6595 0 34.6595 C0 34.6595 0 32.5955 0 32.5955 C4.848 32.5465 5.76 30.9625 5.76 26.4505 C5.76 26.4505 5.76 4.5605 5.76 4.5605 C5.76 2.6885 5.136 2.2559 3.216 2.2559 C3.216 2.2559 0.384 2.2559 0.384 2.2559 C0.384 2.2559 0.384 0 0.384 0 C0.384 0 12.384 0 12.384 0 C12.384 0 21.697 26.4985 21.697 26.4985 C21.697 26.4985 30.722 0 30.722 0 C30.722 0 42.435 0 42.435 0 C42.435 0 42.435 2.2559 42.435 2.2559 C42.435 2.2559 39.89 2.2559 39.89 2.2559 C37.97 2.2559 37.394 2.6885 37.394 4.5605 C37.394 4.5605 37.394 30.0985 37.394 30.0985 C37.394 31.9705 37.97 32.4025 39.89 32.4025 C39.89 32.4025 42.435 32.4025 42.435 32.4025 C42.435 32.4025 42.435 34.6595 42.435 34.6595 C42.435 34.6595 26.882 34.6595 26.882 34.6595 C26.882 34.6595 26.882 32.4025 26.882 32.4025 C26.882 32.4025 29.761 32.4025 29.761 32.4025 C31.682 32.4025 32.306 31.9705 32.306 30.0985 C32.306 30.0985 32.306 3.0725 32.306 3.0725 C32.306 3.0725 21.553 34.6595 21.553 34.6595 C21.553 34.6595 19.681 34.6595 19.681 34.6595 C19.681 34.6595 8.209 3.0725 8.209 3.0725 C8.209 3.0725 8.209 26.4505 8.209 26.4505 Z" />
 </g>
 <g transform="translate(565.518, 97.6875)" style="fill:#004a2a; fill-rule:nonzero; stroke:none; stroke-width:2.5; stroke-linecap:butt; stroke-linejoin:miter; stroke-dasharray:none;" >
  <path d="M0 32.4025 C0 32.4025 2.591 32.4025 2.591 32.4025 C4.559 32.4025 5.183 31.9225 5.183 30.0985 C5.183 30.0985 5.183 4.5605 5.183 4.5605 C5.183 2.7365 4.559 2.2559 2.591 2.2559 C2.591 2.2559 0 2.2559 0 2.2559 C0 2.2559 0 0 0 0 C0 0 15.649 0 15.649 0 C15.649 0 15.649 2.2559 15.649 2.2559 C15.649 2.2559 13.056 2.2559 13.056 2.2559 C11.088 2.2559 10.512 2.7365 10.512 4.5605 C10.512 4.5605 10.512 30.0985 10.512 30.0985 C10.512 31.9225 11.088 32.4025 13.056 32.4025 C13.056 32.4025 15.649 32.4025 15.649 32.4025 C15.649 32.4025 15.649 34.6595 15.649 34.6595 C15.649 34.6595 0 34.6595 0 34.6595 C0 34.6595 0 32.4025 0 32.4025 Z" />
 </g>
</svg>
